HIERARCHY
ROOT Hips
{
	OFFSET 0.00000 0.00000 0.00000
	CHANNELS 6 Xposition Yposition Zposition Zrotation Yrotation Xrotation 
	JOINT LHipJoint
	{
		OFFSET 0 0 0
		CHANNELS 3 Zrotation Yrotation Xrotation
		JOINT LeftHip
		{
			OFFSET 1.55766 -1.60504 1.11378
			CHANNELS 3 Zrotation Yrotation Xrotation
			JOINT LeftKnee
			{
				OFFSET 2.29047 -6.29302 0.00000
				CHANNELS 3 Zrotation Yrotation Xrotation
				JOINT LeftAnkle
				{
					OFFSET 2.52265 -6.93093 0.00000
					CHANNELS 3 Zrotation Yrotation Xrotation
					JOINT LeftToe
					{
						OFFSET 0.17633 -0.48446 2.02656
						CHANNELS 3 Zrotation Yrotation Xrotation
						End Site
						{
							OFFSET 0.00000 -0.00000 1.04989
						}
					}
				}
			}
		}
	}
	JOINT RHipJoint
	{
		OFFSET 0 0 0
		CHANNELS 3 Zrotation Yrotation Xrotation
		JOINT RightHip
		{
			OFFSET -1.48599 -1.60504 1.11378
			CHANNELS 3 Zrotation Yrotation Xrotation
			JOINT RightKnee
			{
				OFFSET -2.27280 -6.24448 0.00000
				CHANNELS 3 Zrotation Yrotation Xrotation
				JOINT RightAnkle
				{
					OFFSET -2.50834 -6.89161 0.00000
					CHANNELS 3 Zrotation Yrotation Xrotation
					JOINT RightToe
					{
						OFFSET -0.26967 -0.74090 2.08741
						CHANNELS 3 Zrotation Yrotation Xrotation
						End Site
						{
							OFFSET -0.00000 -0.00000 1.10614
						}
					}
				}
			}
		}
	}
	JOINT lowerback
	{
		OFFSET 0 0 0
		CHANNELS 3 Zrotation Yrotation Xrotation
		JOINT Chest
		{
			OFFSET 0.06481 2.02437 -0.08472
			CHANNELS 3 Zrotation Yrotation Xrotation
			JOINT Chest2
			{
				OFFSET 0.00015 1.96711 0.18069
				CHANNELS 3 Zrotation Yrotation Xrotation
				JOINT lowerneck
				{
					OFFSET 0 0 0
					CHANNELS 3 Zrotation Yrotation Xrotation
					JOINT Neck
					{
						OFFSET -0.29961 1.68293 -0.13041
						CHANNELS 3 Zrotation Yrotation Xrotation
						JOINT Head
						{
							OFFSET 0.59697 1.61501 -0.14669
							CHANNELS 3 Zrotation Yrotation Xrotation
							End Site
							{
								OFFSET 0.22973 1.74906 -0.10148
							}
						}
					}
				}
				JOINT LeftCollar
				{
					OFFSET 0 0 0
					CHANNELS 3 Zrotation Yrotation Xrotation
					JOINT LeftShoulder
					{
						OFFSET 3.37968 1.02893 0.31147
CHANNELS 3 Zrotation Xrotation Yrotation
						JOINT LeftElbow
						{
OFFSET 0 -5.198070 -0.000000
CHANNELS 3 Zrotation Xrotation Yrotation
							JOINT LeftWrist
							{
OFFSET 0 -3.093700 -0.000000
CHANNELS 3 Zrotation Xrotation Yrotation
								JOINT lhand
								{
									OFFSET 0 0 0
CHANNELS 3 Zrotation Xrotation Yrotation
									JOINT LFingers
									{
OFFSET 0 -0.672630 -0.000000
CHANNELS 3 Zrotation Xrotation Yrotation
										End Site
										{
OFFSET 0 -0.542290 -0.000000
										}
									}
								}
								JOINT LThumb
								{
OFFSET 0 0.000000 0.000000
CHANNELS 3 Zrotation Xrotation Yrotation
									End Site
									{
OFFSET 0 -0.550570 0.550570
									}
								}
							}
						}
					}
				}
				JOINT RightCollar
				{
					OFFSET 0 0 0
					CHANNELS 3 Zrotation Yrotation Xrotation
					JOINT RightShoulder
					{
						OFFSET -3.38254 0.96355 -0.16120
CHANNELS 3 Zrotation Xrotation Yrotation
						JOINT RightElbow
						{
OFFSET 0 -5.452220 -0.000000
CHANNELS 3 Zrotation Xrotation Yrotation
							JOINT RightWrist
							{
OFFSET 0 -3.012840 -0.000000
CHANNELS 3 Zrotation Xrotation Yrotation
								JOINT rhand
								{
									OFFSET 0 0 0
CHANNELS 3 Zrotation Xrotation Yrotation
									JOINT RFingers
									{
OFFSET 0 -0.622300 -0.000000
CHANNELS 3 Zrotation Xrotation Yrotation
										End Site
										{
OFFSET 0 -0.501710 -0.000000
										}
									}
								}
								JOINT RThumb
								{
OFFSET 0 0.000000 0.000000
CHANNELS 3 Zrotation Xrotation Yrotation
									End Site
									{
OFFSET 0 -0.509370 0.509370
									}
								}
							}
						}
					}
				}
			}
		}
	}
}
MOTION
Frames: 4
Frame Time: 0.008333333333333333
-6.714800 15.547400 38.815000 -172.620000 -4.832200 -171.829000 0.000000 0.000000 0.000000 -4.180900 -13.591900 -49.743100 16.401500 19.686700 79.425700 -0.141600 -7.760100 -1.416400 1.962000 -8.786400 -25.129300 0.000000 0.000000 0.000000 33.297000 0.370500 -19.358200 -2.342300 -9.545300 27.516400 -0.498100 18.677500 -17.192700 -0.190000 2.806900 -7.741600 9.097200 2.095600 2.908300 0.173400 3.130500 -6.277800 -5.174200 0.836400 -7.812600 -29.307500 -7.754800 14.637200 44.639200 -18.231400 -12.514400 23.080300 -12.740300 2.125100 -0.000000 -0.000000 0.000000 1.690000 20.540400 -26.628500 89.517800 -59.999100 59.582400 -18.336900 -58.411000 -9.028000 0.000000 0.000000 0.000000 -7.125000 0.000000 0.000000 -36.608000 36.381700 -9.401400 -0.000000 -0.000000 0.000000 -1.442600 16.681200 36.390200 -95.021700 -59.904500 -64.347600 -19.415700 -4.011400 3.461500 0.000000 0.000000 0.000000 7.125000 0.000000 -0.000000 5.887600 33.606700 1.652200
-6.717501 15.549299 38.808408 -172.055479 -4.366956 -172.633332 0.000000 0.000000 0.000000 -3.275690 -13.254086 -52.209741 17.835918 19.887356 83.661319 -0.128906 -7.503951 -1.517094 1.850929 -8.548478 -24.392660 0.000000 0.000000 0.000000 33.933345 -0.531176 -18.059388 -2.158446 -9.188487 26.386807 -0.354005 19.464284 -16.538602 -0.153832 2.527656 -6.966311 9.568318 2.248697 4.027243 0.396517 3.531310 -6.050564 -5.283817 1.012077 -8.155025 -29.252141 -7.674981 15.012547 44.763167 -18.133192 -12.888721 23.272638 -12.749127 1.923534 0.000000 0.000000 0.000000 1.201919 20.733522 -29.115148 95.848046 -59.870366 65.062326 -7.674262 -47.751867 -1.568909 0.000000 0.000000 0.000000 -7.125000 0.000000 0.000000 -26.546640 30.713950 -10.278582 0.000000 0.000000 0.000000 -1.621501 15.870196 36.411958 -100.401734 -59.587105 -68.995631 -19.840330 -3.545631 3.674056 0.000000 0.000000 0.000000 7.125000 0.000000 0.000000 5.560408 33.846039 1.527280
-6.723591 15.561687 38.783439 -171.795534 -3.684715 -172.914416 0.000000 0.000000 0.000000 -2.726541 -12.733490 -55.049229 19.186058 19.984076 87.619635 -0.121708 -7.644159 -2.016074 1.899700 -8.653999 -24.718698 0.000000 0.000000 0.000000 34.207234 -1.128045 -17.209881 -1.997857 -8.861530 25.363254 -0.200248 20.320848 -15.887350 -0.128048 2.306716 -6.353953 9.709449 2.506713 4.567127 0.523957 3.968510 -5.886977 -5.292252 1.229166 -8.225042 -29.194656 -7.806343 14.947010 44.777906 -18.260264 -13.000636 23.197742 -12.804362 1.963857 0.000000 0.000000 0.000000 0.924471 20.507088 -31.626533 99.132859 -59.682414 67.900863 4.134465 -40.428150 6.158723 0.000000 0.000000 0.000000 -7.125000 0.000000 0.000000 -16.567265 23.818114 -8.825668 0.000000 0.000000 0.000000 -1.799021 14.696804 36.478507 -104.153816 -59.229276 -72.225837 -20.147132 -3.060273 3.725647 0.000000 0.000000 0.000000 7.125000 0.000000 0.000000 5.314350 33.911718 1.450648
-6.731279 15.572072 38.750790 -171.563526 -3.101442 -173.068755 0.000000 0.000000 0.000000 -2.224167 -12.290087 -57.954454 20.458071 19.994923 91.339551 -0.121497 -7.866541 -2.333303 1.921930 -8.701551 -24.866137 0.000000 0.000000 0.000000 34.442679 -1.662628 -16.518400 -1.862428 -8.573405 24.469681 -0.059747 21.093491 -15.320376 -0.102163 2.061614 -5.675897 9.854669 2.742310 4.873641 0.635246 4.341798 -5.774834 -5.304076 1.412456 -8.222573 -29.209221 -7.813402 14.967061 44.817220 -18.262503 -13.057437 23.235805 -12.809298 1.957096 0.000000 0.000000 0.000000 0.760218 20.060766 -32.606381 102.777828 -59.373927 71.042673 10.378676 -38.315144 8.896595 0.000000 0.000000 0.000000 -7.125000 0.000000 0.000000 -11.858448 21.015209 -6.964837 0.000000 0.000000 0.000000 -1.938676 13.596258 36.571628 -107.354882 -58.830779 -74.970746 -20.480778 -2.568770 3.822532 0.000000 0.000000 0.000000 7.125000 0.000000 0.000000 5.049850 34.026685 1.363816
